<svg width="256" height="256" viewBox="0 0 256 256" fill="none" xmlns="http://www.w3.org/2000/svg">
<g clip-path="url(#clip0_1058_34)">
<path d="M200 0H56C25.0721 0 0 25.0721 0 56V200C0 230.928 25.0721 256 56 256H200C230.928 256 256 230.928 256 200V56C256 25.0721 230.928 0 200 0Z" fill="url(#paint0_linear_1058_34)"/>
<path d="M109.053 145.44C103.053 145.44 97.7734 144.64 93.2134 143.04C88.6534 141.36 85.0934 138.96 82.5334 135.84C79.9734 132.64 78.6934 128.76 78.6934 124.2C78.6934 119.8 79.9734 116 82.5334 112.8C85.1734 109.52 89.3334 106.96 95.0134 105.12C100.773 103.28 108.253 102.36 117.453 102.36H137.493C145.493 102.36 152.573 103.32 158.733 105.24C164.893 107.16 169.733 110.32 173.253 114.72C176.853 119.04 178.653 124.92 178.653 132.36C178.653 137.8 177.493 142.4 175.173 146.16C172.933 150 169.693 153.32 165.453 156.12C162.813 157.88 159.613 159.36 155.853 160.56C152.173 161.84 147.813 162.76 142.773 163.32C137.813 163.96 132.053 164.28 125.493 164.28H116.133C111.253 164.28 107.773 164.48 105.693 164.88C103.693 165.36 102.053 166.04 100.773 166.92C99.4934 167.88 98.4934 169.08 97.7734 170.52C97.0534 172.04 96.6934 174.08 96.6934 176.64C96.6934 177.52 96.7334 178.36 96.8134 179.16C96.8934 179.96 96.9734 180.8 97.0534 181.68L79.5334 182.52C79.2934 180.84 79.0934 179.16 78.9334 177.48C78.8534 175.88 78.8134 174.12 78.8134 172.2C78.8134 168.6 79.5334 165.44 80.9734 162.72C82.4134 160.08 84.3334 157.92 86.7334 156.24C88.3334 155.12 90.1334 154.2 92.1334 153.48C94.1334 152.76 96.6134 152.24 99.5734 151.92C102.533 151.6 106.213 151.44 110.613 151.44H121.413C128.373 151.44 134.093 151.16 138.573 150.6C143.053 150.12 146.653 149.32 149.373 148.2C152.173 147.08 154.453 145.6 156.213 143.76C157.813 142.16 159.013 140.32 159.813 138.24C160.613 136.08 161.013 133.64 161.013 130.92C161.013 127.4 160.253 124.56 158.733 122.4C157.293 120.24 155.333 118.6 152.853 117.48C150.453 116.28 147.773 115.48 144.813 115.08C141.933 114.68 139.053 114.48 136.173 114.48H115.173C112.373 114.48 109.693 114.64 107.133 114.96C104.653 115.2 102.533 115.76 100.773 116.64C99.2534 117.44 98.1334 118.44 97.4134 119.64C96.6934 120.84 96.3334 122.24 96.3334 123.84C96.3334 126.8 97.5734 129 100.053 130.44C102.613 131.88 106.013 132.6 110.253 132.6C113.373 132.6 116.013 132.12 118.173 131.16C120.413 130.2 122.133 128.48 123.333 126C124.533 123.44 125.133 119.92 125.133 115.44V89.4H107.013V107.76L90.9334 109.68V76.56H165.213V89.4H142.533V115.2C142.533 120.8 141.973 125.24 140.853 128.52C139.813 131.72 138.293 134.44 136.293 136.68C133.413 139.88 129.653 142.16 125.013 143.52C120.373 144.8 115.053 145.44 109.053 145.44Z" fill="white"/>
<g opacity="0.5">
<path d="M94 195H84C81.7909 195 80 196.791 80 199V209C80 211.209 81.7909 213 84 213H94C96.2091 213 98 211.209 98 209V199C98 196.791 96.2091 195 94 195Z" fill="white"/>
<path d="M120 195H110C107.791 195 106 196.791 106 199V209C106 211.209 107.791 213 110 213H120C122.209 213 124 211.209 124 209V199C124 196.791 122.209 195 120 195Z" fill="white"/>
<path d="M146 195H136C133.791 195 132 196.791 132 199V209C132 211.209 133.791 213 136 213H146C148.209 213 150 211.209 150 209V199C150 196.791 148.209 195 146 195Z" fill="white"/>
<path d="M172 195H162C159.791 195 158 196.791 158 199V209C158 211.209 159.791 213 162 213H172C174.209 213 176 211.209 176 209V199C176 196.791 174.209 195 172 195Z" fill="white"/>
</g>
<path d="M113.245 206V202.628H114.139V205.358H117.127V206H113.245ZM115.177 202.028C115.033 202.028 114.915 201.982 114.823 201.89C114.731 201.794 114.685 201.674 114.685 201.53C114.685 201.386 114.731 201.268 114.823 201.176C114.915 201.08 115.033 201.032 115.177 201.032C115.317 201.032 115.433 201.08 115.525 201.176C115.617 201.268 115.663 201.386 115.663 201.53C115.663 201.674 115.617 201.794 115.525 201.89C115.433 201.982 115.317 202.028 115.177 202.028Z" fill="white"/>
<path d="M164.572 206.072C164.296 206.072 164.054 206.016 163.846 205.904C163.642 205.792 163.482 205.624 163.366 205.4C163.25 205.176 163.192 204.896 163.192 204.56C163.192 204.16 163.292 203.81 163.492 203.51C163.692 203.21 163.978 202.976 164.35 202.808C164.726 202.64 165.172 202.556 165.688 202.556C165.936 202.556 166.16 202.572 166.36 202.604C166.564 202.632 166.756 202.682 166.936 202.754C167.116 202.826 167.3 202.922 167.488 203.042L167.638 203.138C167.914 203.35 168.14 203.6 168.316 203.888C168.492 204.176 168.58 204.506 168.58 204.878C168.58 205.122 168.532 205.334 168.436 205.514C168.344 205.694 168.21 205.832 168.034 205.928C167.858 206.024 167.644 206.072 167.392 206.072C167.104 206.072 166.87 206.018 166.69 205.91C166.51 205.802 166.378 205.658 166.294 205.478C166.214 205.294 166.174 205.094 166.174 204.878C166.174 204.662 166.206 204.452 166.27 204.248C166.338 204.044 166.434 203.854 166.558 203.678C166.682 203.498 166.826 203.338 166.99 203.198L167.212 203.042C167.364 202.946 167.518 202.868 167.674 202.808C167.83 202.748 168.016 202.704 168.232 202.676C168.448 202.644 168.722 202.628 169.054 202.628H170.974V203.27H170.116V206H169.222V203.27H168.958C168.746 203.27 168.57 203.276 168.43 203.288C168.294 203.3 168.178 203.318 168.082 203.342C167.986 203.366 167.898 203.4 167.818 203.444C167.742 203.488 167.66 203.544 167.572 203.612C167.448 203.692 167.344 203.796 167.26 203.924C167.176 204.048 167.112 204.186 167.068 204.338C167.028 204.49 167.008 204.648 167.008 204.812C167.008 205.044 167.042 205.21 167.11 205.31C167.178 205.41 167.264 205.46 167.368 205.46C167.464 205.46 167.538 205.432 167.59 205.376C167.642 205.316 167.678 205.238 167.698 205.142C167.722 205.042 167.734 204.934 167.734 204.818C167.734 204.57 167.672 204.332 167.548 204.104C167.428 203.876 167.252 203.696 167.02 203.564C166.832 203.436 166.628 203.346 166.408 203.294C166.192 203.238 165.956 203.21 165.7 203.21C165.36 203.21 165.07 203.262 164.83 203.366C164.59 203.466 164.402 203.6 164.266 203.768C164.13 203.936 164.044 204.12 164.008 204.32C164.004 204.364 163.998 204.408 163.99 204.452C163.986 204.496 163.984 204.558 163.984 204.638C163.984 204.834 164.004 204.992 164.044 205.112C164.088 205.232 164.152 205.32 164.236 205.376C164.32 205.428 164.42 205.454 164.536 205.454C164.628 205.454 164.704 205.436 164.764 205.4C164.828 205.364 164.876 205.312 164.908 205.244C164.944 205.176 164.962 205.094 164.962 204.998C164.962 204.85 164.92 204.734 164.836 204.65C164.756 204.566 164.644 204.524 164.5 204.524C164.332 204.524 164.184 204.574 164.056 204.674C163.928 204.77 163.806 204.876 163.69 204.992L163.558 204.416C163.706 204.276 163.874 204.158 164.062 204.062C164.25 203.966 164.47 203.918 164.722 203.918C165.046 203.918 165.306 204.008 165.502 204.188C165.702 204.368 165.802 204.624 165.802 204.956C165.802 205.188 165.756 205.388 165.664 205.556C165.572 205.72 165.434 205.848 165.25 205.94C165.07 206.028 164.844 206.072 164.572 206.072ZM166.996 202.028C166.852 202.028 166.734 201.982 166.642 201.89C166.55 201.794 166.504 201.674 166.504 201.53C166.504 201.386 166.55 201.268 166.642 201.176C166.734 201.08 166.852 201.032 166.996 201.032C167.136 201.032 167.252 201.08 167.344 201.176C167.436 201.268 167.482 201.386 167.482 201.53C167.482 201.674 167.436 201.794 167.344 201.89C167.252 201.982 167.136 202.028 166.996 202.028Z" fill="white"/>
<path d="M137.664 206V202.628H138.558V205.358H141.546V206H137.664ZM142.123 206V202.628H145.705V203.27H144.847V206H143.953V203.27H143.017V206H142.123Z" fill="white"/>
<path d="M88.0277 205.072C87.7277 205.072 87.4637 205.032 87.2357 204.952C87.0077 204.868 86.8297 204.748 86.7017 204.592C86.5737 204.432 86.5097 204.238 86.5097 204.01C86.5097 203.79 86.5737 203.6 86.7017 203.44C86.8337 203.276 87.0417 203.148 87.3257 203.056C87.6137 202.964 87.9877 202.918 88.4477 202.918H89.4497C89.8497 202.918 90.2037 202.966 90.5117 203.062C90.8197 203.158 91.0617 203.316 91.2377 203.536C91.4177 203.752 91.5077 204.046 91.5077 204.418C91.5077 204.69 91.4497 204.92 91.3337 205.108C91.2217 205.3 91.0597 205.466 90.8477 205.606C90.7157 205.694 90.5557 205.768 90.3677 205.828C90.1837 205.892 89.9657 205.938 89.7137 205.966C89.4657 205.998 89.1777 206.014 88.8497 206.014H88.3817C88.1377 206.014 87.9637 206.024 87.8597 206.044C87.7597 206.068 87.6777 206.102 87.6137 206.146C87.5497 206.194 87.4997 206.254 87.4637 206.326C87.4277 206.402 87.4097 206.504 87.4097 206.632C87.4097 206.676 87.4117 206.718 87.4157 206.758C87.4197 206.798 87.4237 206.84 87.4277 206.884L86.5517 206.926C86.5397 206.842 86.5297 206.758 86.5217 206.674C86.5177 206.594 86.5157 206.506 86.5157 206.41C86.5157 206.23 86.5517 206.072 86.6237 205.936C86.6957 205.804 86.7917 205.696 86.9117 205.612C86.9917 205.556 87.0817 205.51 87.1817 205.474C87.2817 205.438 87.4057 205.412 87.5537 205.396C87.7017 205.38 87.8857 205.372 88.1057 205.372H88.6457C88.9937 205.372 89.2797 205.358 89.5037 205.33C89.7277 205.306 89.9077 205.266 90.0437 205.21C90.1837 205.154 90.2977 205.08 90.3857 204.988C90.4657 204.908 90.5257 204.816 90.5657 204.712C90.6057 204.604 90.6257 204.482 90.6257 204.346C90.6257 204.17 90.5877 204.028 90.5117 203.92C90.4397 203.812 90.3417 203.73 90.2177 203.674C90.0977 203.614 89.9637 203.574 89.8157 203.554C89.6717 203.534 89.5277 203.524 89.3837 203.524H88.3337C88.1937 203.524 88.0597 203.532 87.9317 203.548C87.8077 203.56 87.7017 203.588 87.6137 203.632C87.5377 203.672 87.4817 203.722 87.4457 203.782C87.4097 203.842 87.3917 203.912 87.3917 203.992C87.3917 204.14 87.4537 204.25 87.5777 204.322C87.7057 204.394 87.8757 204.43 88.0877 204.43C88.2437 204.43 88.3757 204.406 88.4837 204.358C88.5957 204.31 88.6817 204.224 88.7417 204.1C88.8017 203.972 88.8317 203.796 88.8317 203.572V202.27H87.9257V203.188L87.1217 203.284V201.628H90.8357V202.27H89.7017V203.56C89.7017 203.84 89.6737 204.062 89.6177 204.226C89.5657 204.386 89.4897 204.522 89.3897 204.634C89.2457 204.794 89.0577 204.908 88.8257 204.976C88.5937 205.04 88.3277 205.072 88.0277 205.072Z" fill="white"/>
</g>
<defs>
<linearGradient id="paint0_linear_1058_34" x1="19" y1="16" x2="239" y2="238.5" gradientUnits="userSpaceOnUse">
<stop stop-color="#4FB3BF"/>
<stop offset="1" stop-color="#00838F"/>
</linearGradient>
<clipPath id="clip0_1058_34">
<rect width="256" height="256" fill="white"/>
</clipPath>
</defs>
</svg>
